<svg xmlns="http://www.w3.org/2000/svg" xmlns:xlink="http://www.w3.org/1999/xlink" id="Ebene_1" x="0px" y="0px" viewBox="0 0 344.96 90.2" style="enable-background:new 0 0 344.96 90.2;" xml:space="preserve">
<style type="text/css">
	.Grün_x0020_bogenförmig{fill:url(#SVGID_1_);stroke:#FFFFFF;stroke-width:0.25;stroke-miterlimit:1;}
	.st0{fill:#009FE3;}
</style>
<linearGradient id="SVGID_1_" gradientUnits="userSpaceOnUse" x1="-143.1978" y1="492.4931" x2="-142.4907" y2="491.786">
	<stop offset="0" style="stop-color:#1DA238"></stop>
	<stop offset="0.9831" style="stop-color:#24391D"></stop>
</linearGradient>
<path class="st0" d="M291.92,16.72c-16.01,0-25.86,8.14-30.74,18.98c-4.87-10.81-14.71-18.98-30.73-18.98  c-12.13,0-20.71,4.67-26.29,11.65V16.72h-8.19v13.24c-5.5-7.83-14.44-13.24-27.48-13.24c-12.65,0-21.45,5.09-26.99,12.57V16.72  h-7.71v28.94c0,17.37-11.42,29.87-26.77,29.87c-15.35,0-26.81-12.59-26.88-29.87V16.72h-0.12h-7.48h-0.23v28.94  c0,17.37-11.42,29.87-26.77,29.87s-26.8-12.59-26.88-29.87V16.72h-7.6v28.94c0,18.41,10.04,37.39,34.48,37.39  c16.01,0,25.86-8.15,30.74-18.98C81.17,74.88,91,83.05,107.03,83.05c12.65,0,21.45-5.09,26.99-12.57v12.57h7.71V54.11  c0-17.37,11.42-29.87,26.77-29.87c15.35,0,26.8,12.59,26.88,29.87v28.94h0.6h7h0.71V54.11c0-17.37,11.42-29.87,26.77-29.87  c15.35,0,26.8,12.59,26.87,29.87v28.94h0.12h7.48h0.22V54.11c0-17.37,11.42-29.87,26.77-29.87c15.35,0,26.8,12.59,26.88,29.87v28.94  h7.6V54.11C326.4,35.7,316.36,16.72,291.92,16.72z"></path>
<g>
	<path class="st0" d="M330.79,11.4c0,3.4-2.74,6.1-6.22,6.1c-3.48,0-6.25-2.7-6.25-6.1c0-3.4,2.78-6.07,6.29-6.07   C328.05,5.33,330.79,8,330.79,11.4z M319.87,11.4c0,2.7,2.04,4.85,4.74,4.85c2.63,0.04,4.62-2.15,4.62-4.81c0-2.7-2-4.88-4.7-4.88   C321.91,6.55,319.87,8.74,319.87,11.4z M323.61,14.55h-1.41V8.48c0.55-0.07,1.33-0.19,2.33-0.19c1.15,0,1.67,0.19,2.07,0.48   c0.37,0.26,0.63,0.7,0.63,1.29c0,0.74-0.55,1.22-1.26,1.44v0.07c0.59,0.19,0.89,0.67,1.07,1.48c0.18,0.92,0.33,1.26,0.44,1.48   h-1.48c-0.18-0.22-0.3-0.74-0.48-1.48c-0.11-0.63-0.48-0.93-1.26-0.93h-0.67V14.55z M323.65,11.14h0.67c0.78,0,1.41-0.26,1.41-0.89   c0-0.55-0.41-0.92-1.29-0.92c-0.37,0-0.63,0.04-0.78,0.07V11.14z"></path>
</g>
<g>
</g>
<g>
</g>
<g>
</g>
<g>
</g>
<g>
</g>
<g>
</g>
</svg>